<svg xmlns="http://www.w3.org/2000/svg" viewBox="0 0 512 512">
  <path d="M92,399.63v-117.33c0-33.53,25-54.61,60-54.61-13-33.53,4-62.27,41-77.6-13-28.74,2-55.57,37-74.73,14-7.66,22-20.12,26-37.36,4,17.24,12,29.7,26,37.36,35,19.16,50,45.99,37,74.73,37,15.33,54,44.07,41,77.6,35,0,60,21.08,60,54.61v117.33s-23.13,29.15-62.54,49.37c-28.52,14.63-126.99,34.26-189.15,6.64-52.91-23.51-76.31-56.02-76.31-56.02Z" fill="none" stroke="currentColor" stroke-opacity=".58" stroke-width="10" stroke-linejoin="round"/>
  <path d="M154.54,449s-6.63-3.26-12.54-7v-141c0-28,20-46,48-46-10-28,3-52,32-65-10-23,2-45,34-64,32,19,44,41,34,64,29,13,42,37,32,65,28,0,48,18,48,46v140.97c-4.35,2.82-12.54,7.03-12.54,7.03-16.58,9.33-109.98,48.78-202.92,0Z" fill="none" stroke="currentColor" stroke-width="11" stroke-linejoin="round"/>
  <path d="M256,52.74v421.26" fill="none" stroke="currentColor" stroke-opacity=".78" stroke-width="8"/>
  <circle cx="235" cy="349" r="10" fill="currentColor"/>
  <circle cx="277" cy="349" r="10" fill="currentColor"/>
</svg>
